name C:\Users\Nicos\Desktop\Gil_twoSteps\Study2\ExperimentalData\IK_Splined\twoSteps_IK_BSplines_120_meshInts_study2_p02_s_01_lowIK_modROI.mot
datacolumns 38
datarows 5
range 0.54600000 0.54963333
endheader
                time	         pelvis_tilt	         pelvis_list	     pelvis_rotation	           pelvis_tx	           pelvis_ty	           pelvis_tz	       hip_flexion_r	     hip_adduction_r	      hip_rotation_r	        knee_angle_r	       ankle_angle_r	    subtalar_angle_r	         mtp_angle_r	       hip_flexion_l	     hip_adduction_l	      hip_rotation_l	        knee_angle_l	       ankle_angle_l	    subtalar_angle_l	         mtp_angle_l	    lumbar_extension	      lumbar_bending	     lumbar_rotation	          arm_flex_r	           arm_add_r	           arm_rot_r	        elbow_flex_r	           pro_sup_r	        wrist_flex_r	         wrist_dev_r	          arm_flex_l	           arm_add_l	           arm_rot_l	        elbow_flex_l	           pro_sup_l	        wrist_flex_l	         wrist_dev_l	
          0.54600000	        -23.03266371	         12.59642609	         -7.18965172	         -0.28944991	          0.87242990	          0.35078036	        -11.56705420	        -16.63012972	          0.60366658	        -25.41131716	        -42.85844288	        -15.78170077	         -5.84843560	         88.25891837	          0.78621588	        -11.20098712	        -86.13088052	          6.55650638	        -14.41396204	          7.20310329	        -14.98408938	        -23.77587200	         -7.01285459	         55.88557857	        -12.95192713	         24.69280265	        141.31263699	         60.41893889	        -18.61211496	         10.24933266	        -76.17161173	          4.61963066	        -44.93210315	         52.75704031	         63.40632995	          1.35500673	         25.46669654	
          0.54656335	        -23.01881016	         12.49561588	         -7.07507461	         -0.28630662	          0.87281534	          0.35084931	        -11.51797301	        -16.45103046	          0.46095077	        -25.76437246	        -42.83677885	        -15.87699122	         -5.92961157	         88.09014263	          0.81103897	        -11.15213835	        -85.88404705	          6.56174838	        -14.39305591	          7.19753373	        -15.07383835	        -23.72185122	         -7.09097876	         55.40978618	        -13.11463189	         24.63562508	        141.46416181	         60.37704054	        -18.64057187	         10.25999598	        -75.95883359	          4.60761548	        -44.94846993	         52.80674080	         63.39773206	          1.36553227	         25.45866183	
          0.54834331	        -22.96353467	         12.17544507	         -6.71495361	         -0.27637294	          0.87404092	          0.35107515	        -11.35347432	        -15.88425969	          0.01641648	        -26.91022283	        -42.73043776	        -16.14435410	         -6.12859351	         87.53315576	          0.89083359	        -10.99759423	        -85.11092540	          6.57301914	        -14.32061401	          7.18453180	        -15.37785925	        -23.54892861	         -7.32466732	         53.87154829	        -13.63053709	         24.41505941	        141.92124941	         60.24543224	        -18.73218788	         10.29647894	        -75.27092932	          4.54431233	        -44.98612743	         52.98074929	         63.38379090	          1.39731761	         25.43175140	
          0.54963333	        -22.90203280	         11.94032443	         -6.45749138	         -0.26916948	          0.87494360	          0.35125368	        -11.21669357	        -15.47183624	         -0.29384882	        -27.79721971	        -42.58274456	        -16.27528340	         -6.16563329	         87.08526444	          0.95120618	        -10.88521277	        -84.56323001	          6.57132460	        -14.25620782	          7.18367410	        -15.63631339	        -23.41943069	         -7.46951904	         52.69161861	        -14.00783739	         24.18082454	        142.21213425	         60.15149127	        -18.80176170	         10.32812211	        -74.74327601	          4.45120437	        -44.98722386	         53.13849978	         63.39833552	          1.41761207	         25.40940765	
          0.54963333	        -22.90203280	         11.94032443	         -6.45749138	         -0.26916948	          0.87494360	          0.35125368	        -11.21669357	        -15.47183624	         -0.29384882	        -27.79721971	        -42.58274456	        -16.27528340	         -6.16563329	         87.08526444	          0.95120618	        -10.88521277	        -84.56323001	          6.57132460	        -14.25620782	          7.18367410	        -15.63631339	        -23.41943069	         -7.46951904	         52.69161861	        -14.00783739	         24.18082454	        142.21213425	         60.15149127	        -18.80176170	         10.32812211	        -74.74327601	          4.45120437	        -44.98722386	         53.13849978	         63.39833552	          1.41761207	         25.40940765	
